<svg width="72" height="72" viewBox="0 0 72 72" fill="none" xmlns="http://www.w3.org/2000/svg">
<path d="M63.2869 40.6949L49.2964 32.2609C48.8096 31.9678 48.2522 31.8129 47.684 31.8129C47.1158 31.8129 46.5584 31.9678 46.0716 32.2609L30.5928 41.5879V58.6047C30.5928 59.4336 30.9221 60.2286 31.5082 60.8148C32.0944 61.4009 32.8894 61.7302 33.7183 61.7302H61.6745C62.5014 61.7237 63.2926 61.3924 63.8774 60.8076C64.4621 60.2229 64.7935 59.4316 64.8 58.6047V43.3491C64.796 42.8142 64.6548 42.2892 64.3899 41.8245C64.1249 41.3598 63.7451 40.9708 63.2869 40.6949Z" fill="#F9DAC8"/>
<path d="M8.71422 33.6005L17.1234 28.8378C17.6695 28.5337 18.2843 28.374 18.9094 28.374C19.5345 28.374 20.1493 28.5337 20.6954 28.8378L29.0054 33.5261C29.5031 33.7881 29.9164 34.1858 30.1974 34.6732C30.4784 35.1605 30.6155 35.7174 30.593 36.2795V58.6048C30.548 59.458 30.1687 60.2592 29.5373 60.8349C28.9059 61.4106 28.0732 61.7145 27.2194 61.6807H10.5995C9.74316 61.7147 8.90765 61.4116 8.27228 60.8365C7.63692 60.2614 7.25232 59.4602 7.20106 58.6048V36.2795C7.18806 35.738 7.32185 35.203 7.58825 34.7314C7.85465 34.2597 8.24372 33.8689 8.71422 33.6005Z" fill="#77DAA9"/>
<path d="M42.6239 49.7986L32.131 43.7212C31.6626 43.4536 31.1325 43.3129 30.5931 43.3129C30.0536 43.3129 29.5235 43.4536 29.0551 43.7212L18.6367 49.7986C18.167 50.0639 17.7769 50.4498 17.5065 50.9164C17.2361 51.3831 17.0953 51.9135 17.0987 52.4528V61.631H44.1371V52.4528C44.1404 51.9165 44.0023 51.3887 43.7366 50.9227C43.471 50.4567 43.0872 50.069 42.6239 49.7986Z" fill="#30B575"/>
<path d="M15.5856 37.5693H12.7329C12.3219 37.5693 11.9888 37.9025 11.9888 38.3135V42.977C11.9888 43.388 12.3219 43.7212 12.7329 43.7212H15.5856C15.9966 43.7212 16.3298 43.388 16.3298 42.977V38.3135C16.3298 37.9025 15.9966 37.5693 15.5856 37.5693Z" fill="white"/>
<path d="M59.318 50.6668H56.4654C56.0544 50.6668 55.7212 51 55.7212 51.411V56.0745C55.7212 56.4855 56.0544 56.8187 56.4654 56.8187H59.318C59.729 56.8187 60.0622 56.4855 60.0622 56.0745V51.411C60.0622 51 59.729 50.6668 59.318 50.6668Z" fill="white"/>
<path d="M28.1369 52.4528H25.2842C24.8732 52.4528 24.54 52.786 24.54 53.197V56.0497C24.54 56.4607 24.8732 56.7938 25.2842 56.7938H28.1369C28.5479 56.7938 28.8811 56.4607 28.8811 56.0497V53.197C28.8811 52.786 28.5479 52.4528 28.1369 52.4528Z" fill="white"/>
<path d="M35.9264 52.4528H33.0738C32.6628 52.4528 32.3296 52.786 32.3296 53.197V56.0497C32.3296 56.4607 32.6628 56.7938 33.0738 56.7938H35.9264C36.3374 56.7938 36.6706 56.4607 36.6706 56.0497V53.197C36.6706 52.786 36.3374 52.4528 35.9264 52.4528Z" fill="white"/>
<path d="M39.5975 11.2752C37.6399 12.4226 36.0026 14.0442 34.8365 15.9906C33.6704 17.9371 33.0129 20.1457 32.9247 22.413C32.5278 33.278 42.847 36.8748 47.8082 49.8234C52.3477 37.4205 62.0964 33.6004 62.6917 23.7773C63.0142 12.9868 50.4872 4.85048 39.5975 11.2752Z" fill="#FE9053"/>
<path d="M47.7586 29.0858C46.6379 29.0956 45.5396 28.7723 44.603 28.1569C43.6664 27.5414 42.9338 26.6616 42.4981 25.629C42.0624 24.5965 41.9433 23.4578 42.1559 22.3574C42.3685 21.2571 42.9032 20.2447 43.6922 19.4487C44.4811 18.6528 45.4888 18.1092 46.5872 17.8869C47.6856 17.6647 48.8253 17.7737 49.8617 18.2003C50.898 18.6269 51.7843 19.3517 52.408 20.2828C53.0316 21.214 53.3646 22.3094 53.3647 23.4301C53.3647 24.9215 52.7757 26.3526 51.7257 27.4118C50.6758 28.4711 49.2499 29.0727 47.7586 29.0858Z" fill="white"/>
</svg>
