<svg width="16" height="16" viewBox="0 0 16 16" fill="none" xmlns="http://www.w3.org/2000/svg"><g clip-path="url(#clip0_2286_35818)"><path d="M0.111344 15.6238C0.134853 15.6628 0.162092 15.7002 0.193059 15.7354C0.204707 15.7487 0.216799 15.7615 0.229313 15.774C0.385246 15.9291 0.590591 16.0043 0.794495 15.9998L5.95674 15.9998C6.38584 15.9998 6.7337 15.652 6.73371 15.2229C6.73371 14.7938 6.38585 14.4459 5.95675 14.4459L2.65309 14.4459L8.77243 8.32639C9.07586 8.02296 9.07586 7.531 8.77243 7.22757C8.46901 6.92414 7.97707 6.92414 7.67364 7.22757L1.55392 13.3474L1.55393 10.043C1.55393 9.61389 1.20607 9.26603 0.776963 9.26603C0.347859 9.26603 5.58291e-07 9.61389 5.20777e-07 10.043L6.79424e-08 15.2228C5.51156e-08 15.3696 0.0406666 15.5068 0.111344 15.6238Z" fill="white"></path><path d="M15.8887 0.376158C15.8651 0.337174 15.8379 0.299808 15.8069 0.264576C15.7953 0.251317 15.7832 0.238458 15.7707 0.226023C15.6148 0.0709459 15.4094 -0.00433104 15.2055 0.000192298L10.0433 0.000157978C9.61416 0.000156177 9.2663 0.34802 9.26629 0.777133C9.26629 1.20625 9.61415 1.55411 10.0433 1.55411L13.3469 1.55414L7.22757 7.67361C6.92414 7.97704 6.92414 8.469 7.22757 8.77243C7.53099 9.07586 8.02293 9.07586 8.32636 8.77243L14.4461 2.65258V5.95699C14.4461 6.38611 14.7939 6.73397 15.223 6.73397C15.6521 6.73397 16 6.38611 16 5.95699V0.777171C16 0.630449 15.9593 0.493226 15.8887 0.376158Z" fill="white"></path></g><defs><clipPath id="clip0_2286_35818"><rect width="16" height="16" fill="white" transform="translate(16 16) rotate(-180)"></rect></clipPath></defs></svg>